{"title":"Mind hunters.DVDRip-Hindi.aaaevilacharya","uid":5866117,"size":735557514,"categoryP":"video","categoryS":"movies","magnet":"?xt=urn:btih:1af75e6c88c7358031330f2fef94200efbeaf331&amp;dn=Mind+hunters.DVDRip-Hindi.aaaevilacharya&amp;tr=udp%3A%2F%2Ftracker.openbittorrent.com%3A80&amp;tr=udp%3A%2F%2Fopen.demonii.com%3A1337&amp;tr=udp%3A%2F%2Ftracker.coppersurfer.tk%3A6969&amp;tr=udp%3A%2F%2Fexodus.desync.com%3A6969","seeders":1,"leechers":0,"uploader":"achaevil","files":11,"time":1286178442,"description":"General\nComplete name : Mindhunters.DVDRip-Hindi.aaaevilacharya.mkv\nFormat : Matroska\nFile size : 699 MiB\nDuration : 1h 34mn\nOverall bit rate : 1 036 Kbps\nEncoded date : UTC 2010-10-04 15:28:58\nWriting application : mkvmerge v2.9.8\nWriting library : libebml v0.7.7 + libmatroska v0.8.1\n\nVideo\nID : 1\nFormat : MPEG-4 Visual\nFormat profile : Advanced Simple@L5\nFormat settings, BVOP : Yes\nFormat settings, QPel : No\nFormat settings, GMC : No warppoints\nFormat settings, Matrix : Default (H.263)\nCodec ID : XVID\nCodec ID/Hint : XviD\nDuration : 1h 34mn\nBit rate : 903 Kbps\nWidth : 1108 pixels\nHeight : 480 pixels\nDisplay aspect ratio : 1.851\nOriginal display aspect ratio : 1.377\nFrame rate : 25.000 fps\nColor space : YUV\nChroma subsampling : 4:2:0\nBit depth : 8 bits\nScan type : Progressive\nBits/(Pixel*Frame) : 0.120\nStream size : 609 MiB (87%)\nTitle : aaaevilacharya\nWriting library : XviD 1.2.1\nLanguage : Hindi\n\nAudio\nID : 2\nFormat : MPEG Audio\nFormat version : Version 1\nFormat profile : Layer 3\nMode : Joint stereo\nMode extension : MS Stereo\nCodec ID : A_MPEG/L3\nCodec ID/Hint : MP3\nDuration : 1h 34mn\nBit rate mode : Constant\nBit rate : 112 Kbps\nChannel(s) : 2 channels\nSampling rate : 44.1 KHz\nStream size : 75.5 MiB (11%)\nTitle : evil hindi\nWriting library : LAME3.98r\nLanguage : Hindi\n\nscreenshots-\n &lt;a href=&quot;\nhttp://img72.imageshack.us/img72/8229/vlcsnap2010100410h41m52.png&quot; rel=&quot;nofollow&quot; target=&quot;_NEW&quot;&gt;\nhttp://img72.imageshack.us/img72/8229/vlcsnap2010100410h41m52.png&lt;/a&gt;\n &lt;a href=&quot;\nhttp://img829.imageshack.us/img829/7471/vlcsnap2010100410h39m25.png&quot; rel=&quot;nofollow&quot; target=&quot;_NEW&quot;&gt;\nhttp://img829.imageshack.us/img829/7471/vlcsnap2010100410h39m25.png&lt;/a&gt;\n &lt;a href=&quot;\nhttp://img39.imageshack.us/img39/161/vlcsnap2010100410h39m34.png&quot; rel=&quot;nofollow&quot; target=&quot;_NEW&quot;&gt;\nhttp://img39.imageshack.us/img39/161/vlcsnap2010100410h39m34.png&lt;/a&gt;\n &lt;a href=&quot;\nhttp://img830.imageshack.us/img830/4025/vlcsnap2010100410h39m47.png&quot; rel=&quot;nofollow&quot; target=&quot;_NEW&quot;&gt;\nhttp://img830.imageshack.us/img830/4025/vlcsnap2010100410h39m47.png&lt;/a&gt;\n &lt;a href=&quot;\nhttp://img411.imageshack.us/img411/7206/vlcsnap2010100410h40m17.png&quot; rel=&quot;nofollow&quot; target=&quot;_NEW&quot;&gt;\nhttp://img411.imageshack.us/img411/7206/vlcsnap2010100410h40m17.png&lt;/a&gt;\n &lt;a href=&quot;\nhttp://img641.imageshack.us/img641/3953/vlcsnap2010100410h40m39.png&quot; rel=&quot;nofollow&quot; target=&quot;_NEW&quot;&gt;\nhttp://img641.imageshack.us/img641/3953/vlcsnap2010100410h40m39.png&lt;/a&gt;\n &lt;a href=&quot;\nhttp://img185.imageshack.us/img185/5180/vlcsnap2010100410h41m03.png&quot; rel=&quot;nofollow&quot; target=&quot;_NEW&quot;&gt;\nhttp://img185.imageshack.us/img185/5180/vlcsnap2010100410h41m03.png&lt;/a&gt;\n &lt;a href=&quot;\nhttp://img401.imageshack.us/img401/2774/vlcsnap2010100410h41m25.png&quot; rel=&quot;nofollow&quot; target=&quot;_NEW&quot;&gt;\nhttp://img401.imageshack.us/img401/2774/vlcsnap2010100410h41m25.png&lt;/a&gt;\n &lt;a href=&quot;\nhttp://img155.imageshack.us/img155/6261/vlcsnap2010100410h41m35.png&quot; rel=&quot;nofollow&quot; target=&quot;_NEW&quot;&gt;\nhttp://img155.imageshack.us/img155/6261/vlcsnap2010100410h41m35.png&lt;/a&gt;\n","torrent":{"xt":"urn:btih:1af75e6c88c7358031330f2fef94200efbeaf331","amp;dn":"Mind+hunters.DVDRip-Hindi.aaaevilacharya","amp;tr":["udp%3A%2F%2Ftracker.openbittorrent.com%3A80","udp%3A%2F%2Fopen.demonii.com%3A1337","udp%3A%2F%2Ftracker.coppersurfer.tk%3A6969","udp%3A%2F%2Fexodus.desync.com%3A6969"],"infoHash":"1af75e6c88c7358031330f2fef94200efbeaf331","infoHashBuffer":{"type":"Buffer","data":[26,247,94,108,136,199,53,128,49,51,15,47,239,148,32,14,251,234,243,49]},"announce":[],"urlList":[]}}